
<svg xmlns="http://www.w3.org/2000/svg" viewBox="0 0 479.961 479.961"><path d="M263.98 325.432V72a8 8 0 00-2.352-5.664A6.872 6.872 0 00255.98 64l-32 .104a8 8 0 00-8 8v253.32c-27.952 13.238-39.879 46.629-26.642 74.58a56 56 0 0038.73 30.756A58.434 58.434 0 00239.9 432c30.928.011 56.009-25.052 56.02-55.98a56 56 0 00-31.94-50.588zm13.721 63.878a39.945 39.945 0 01-12.528 17.738v-.016a40.286 40.286 0 01-33.84 8.048c-21.567-4.783-35.174-26.144-30.391-47.712a39.998 39.998 0 0125.663-29.032 8 8 0 005.376-7.536V80.08l16-.08v250.8a8 8 0 005.368 7.552c20.796 7.347 31.699 30.162 24.352 50.958z"/><path d="M327.616 319.948a104.006 104.006 0 00-31.636-31.636V240h24a8 8 0 000-16h-24v-16h24a8 8 0 000-16h-24v-16h24a8 8 0 000-16h-24v-16h24a8 8 0 000-16h-24v-16h24a8 8 0 000-16h-24V56c-.035-30.913-25.087-55.965-56-56-30.913.035-55.965 25.087-56 56v232.312c-48.4 30.928-62.564 95.236-31.636 143.636 30.928 48.4 95.236 62.564 143.636 31.636 48.4-30.929 62.564-95.237 31.636-143.636zM239.98 464c-48.601.059-88.048-39.292-88.107-87.893a88 88 0 0144.107-76.379 8 8 0 004-6.928V56c.026-22.08 17.92-39.974 40-40 22.075.04 39.96 17.925 40 40v236.8a8 8 0 004 6.928c42.124 24.241 56.621 78.041 32.379 120.165A88 88 0 01239.98 464z"/></svg>